<svg width="1200" height="300" viewBox="0 0 1200 300" xmlns="http://www.w3.org/2000/svg">
  <defs>
    <linearGradient id="bg" x1="0%" y1="0%" x2="100%" y2="100%">
      <stop offset="0%" style="stop-color:#0a0a0a;stop-opacity:1" />
      <stop offset="100%" style="stop-color:#1a1a2e;stop-opacity:1" />
    </linearGradient>
    <linearGradient id="glow" x1="0%" y1="0%" x2="100%" y2="0%">
      <stop offset="0%" style="stop-color:#00ff88;stop-opacity:0" />
      <stop offset="50%" style="stop-color:#00ff88;stop-opacity:1" />
      <stop offset="100%" style="stop-color:#00ff88;stop-opacity:0" />
    </linearGradient>
  </defs>
  
  <rect width="1200" height="300" fill="url(#bg)"/>
  
  <g opacity="0.1">
    <line x1="0" y1="50" x2="1200" y2="50" stroke="#00ff88" stroke-width="1"/>
    <line x1="0" y1="150" x2="1200" y2="150" stroke="#00ff88" stroke-width="1"/>
    <line x1="0" y1="250" x2="1200" y2="250" stroke="#00ff88" stroke-width="1"/>
  </g>
  
  <path d="M50 80 L80 80 L80 50 M50 120 L80 120 L80 150" stroke="#00ff88" stroke-width="3" fill="none" opacity="0.6"/>
  <path d="M1150 80 L1120 80 L1120 50 M1150 120 L1120 120 L1120 150" stroke="#00ff88" stroke-width="3" fill="none" opacity="0.6"/>
  
  <rect x="100" y="100" width="40" height="40" fill="none" stroke="#00ff88" stroke-width="2" opacity="0.8">
    <animate attributeName="opacity" values="0.3;0.8;0.3" dur="2s" repeatCount="indefinite"/>
  </rect>
  
  <circle cx="1080" cy="120" r="20" fill="none" stroke="#00ff88" stroke-width="2" opacity="0.8">
    <animate attributeName="r" values="15;25;15" dur="3s" repeatCount="indefinite"/>
    <animate attributeName="opacity" values="0.8;0.3;0.8" dur="3s" repeatCount="indefinite"/>
  </circle>
  
  <text x="600" y="130" font-family="'Courier New', monospace" font-size="72" font-weight="bold" fill="#ffffff" text-anchor="middle" letter-spacing="8">
    BLACKICE
  </text>
  
  <text x="600" y="170" font-family="'Courier New', monospace" font-size="24" fill="#00ff88" text-anchor="middle" letter-spacing="4">
    ACADEMY
  </text>
  
  <text x="600" y="200" font-family="monospace" font-size="12" fill="#667eea" text-anchor="middle" opacity="0.7">
    &lt; ETHICAL HACKING • DEFENSIVE SECURITY • CTF LABS /&gt;
  </text>
  
  <g opacity="0.4">
    <text x="150" y="240" font-family="monospace" font-size="10" fill="#00ff88">root@blackice:~$</text>
    <text x="1050" y="240" font-family="monospace" font-size="10" fill="#00ff88" text-anchor="end">[SECURE]</text>
  </g>
  
  <rect x="0" y="0" width="1200" height="300" fill="none" stroke="#00ff88" stroke-width="2" opacity="0.3"/>
</svg>
